<?xml version="1.0" encoding="iso-8859-1"?>
<!-- Uploaded to: SVG Repo, www.svgrepo.com, Generator: SVG Repo Mixer Tools -->
<svg height="120px" width="120px" version="1.1" id="Layer_1" xmlns="http://www.w3.org/2000/svg" xmlns:xlink="http://www.w3.org/1999/xlink" 
	 viewBox="0 0 512 512" xml:space="preserve">
<g>
	<polygon style="fill:black;" points="29.984,463.556 18.528,498.812 48.512,477.02 78.48,498.812 67.04,463.556 97.008,441.78 
		59.968,441.78 48.512,406.54 37.056,441.78 0,441.78 	"/>
	<polygon style="fill:black;" points="163.712,441.78 152.256,406.54 140.8,441.78 103.736,441.78 133.728,463.556 
		122.272,498.812 152.256,477.02 182.24,498.812 170.784,463.556 200.768,441.78 	"/>
	<polygon style="fill:black;" points="267.456,441.78 256,406.54 244.544,441.78 207.48,441.78 237.464,463.556 226.008,498.812 
		256,477.02 285.984,498.812 274.528,463.556 304.512,441.78 	"/>
	<polygon style="fill:black;" points="371.192,441.78 359.736,406.54 348.28,441.78 311.224,441.78 341.208,463.556 
		329.752,498.812 359.736,477.02 389.728,498.812 378.272,463.556 408.256,441.78 	"/>
	<polygon style="fill:black;" points="474.936,441.78 463.48,406.54 452.024,441.78 414.984,441.78 444.952,463.556 
		433.496,498.812 463.48,477.02 493.464,498.812 482.008,463.556 512,441.78 	"/>
</g>
<polygon points="178.912,111.724 152.632,33.964 84.6,33.964 84.6,13.188 167.544,13.188 198.592,105.068 "/>
<polygon style="fill:#FFFFFF;" points="137.568,99.116 407.984,99.116 356.44,243.732 182.6,243.732 "/>
<polygon points="349.368,170.444 244.208,170.444 224.944,137.228 147.944,137.228 147.944,129.228 229.552,129.228 
	248.816,162.444 349.368,162.444 "/>
<circle cx="329.68" cy="306.476" r="40"/>
<circle cx="208.96" cy="306.476" r="40"/>
<g>
	<circle style="fill:#939393;" cx="208.96" cy="306.476" r="13.968"/>
	<circle style="fill:#939393;" cx="329.68" cy="306.476" r="13.968"/>
</g>
<g>
	<polygon style="fill:black;" points="400.784,119.948 335.072,119.948 328.968,136.636 395.568,136.636 	"/>
	<polygon style="fill:black;" points="171.344,206.212 237.056,206.212 243.16,222.9 176.56,222.9 	"/>
	<path style="fill:black;" d="M405.696,102.268L356.4,240.58H182.448l-43.072-138.312H405.696 M417.04,94.268H128.512
		l48.048,154.304h185.48L417.04,94.268z"/>
</g>
</svg>