<?xml version="1.0" encoding="iso-8859-1"?>
<!-- Uploaded to: SVG Repo, www.svgrepo.com, Generator: SVG Repo Mixer Tools -->
<svg fill="#000000" height="120px" width="120px" version="1.1" id="Layer_1" xmlns="http://www.w3.org/2000/svg" xmlns:xlink="http://www.w3.org/1999/xlink" 
	 viewBox="0 0 512 512" xml:space="preserve">
<g>
	<g>
		<path d="M177.896,39.154c-1.292-3.062-4.407-5.083-7.741-4.941c-3.288,0.139-6.25,2.363-7.273,5.495
			c-2.252,6.893,5.46,13.119,11.708,9.399C177.993,47.079,179.358,42.807,177.896,39.154z"/>
	</g>
</g>
<g>
	<g>
		<path d="M212.101,39.154c-1.3-3.081-4.443-5.11-7.802-4.939c-3.34,0.17-6.311,2.473-7.274,5.679
			c-0.958,3.186,0.184,6.709,2.835,8.718c2.824,2.14,6.843,2.139,9.667,0C212.422,46.418,213.444,42.511,212.101,39.154z"/>
	</g>
</g>
<g>
	<g>
		<path d="M143.691,39.154c-1.328-3.147-4.574-5.185-7.999-4.924c-3.352,0.257-6.235,2.628-7.132,5.865
			c-1.951,7.034,6.269,12.925,12.3,8.705C143.933,46.649,145.08,42.622,143.691,39.154z"/>
	</g>
</g>
<g>
	<g>
		<path d="M187.591,461.762h-34.205c-4.427,0-8.017,3.589-8.017,8.017c0,4.427,3.589,8.017,8.017,8.017h34.205
			c4.427,0,8.017-3.589,8.017-8.017C195.608,465.351,192.018,461.762,187.591,461.762z"/>
	</g>
</g>
<g>
	<g>
		<path d="M136.284,342.046H93.528c-4.427,0-8.017,3.589-8.017,8.017s3.589,8.017,8.017,8.017h42.756
			c4.427,0,8.017-3.589,8.017-8.017S140.711,342.046,136.284,342.046z"/>
	</g>
</g>
<g>
	<g>
		<path d="M161.937,367.699H93.528c-4.427,0-8.017,3.589-8.017,8.017c0,4.427,3.589,8.017,8.017,8.017h68.409
			c4.427,0,8.017-3.589,8.017-8.017C169.954,371.289,166.365,367.699,161.937,367.699z"/>
	</g>
</g>
<g>
	<g>
		<path d="M170.489,188.125c-13.851,0-25.119,11.268-25.119,25.119s11.268,25.119,25.119,25.119s25.119-11.268,25.119-25.119
			S184.339,188.125,170.489,188.125z M170.489,222.33c-5.01,0-9.086-4.076-9.086-9.086s4.076-9.086,9.086-9.086
			s9.086,4.076,9.086,9.086S175.498,222.33,170.489,222.33z"/>
	</g>
</g>
<g>
	<g>
		<path d="M221.835,115.236c-15.732-8.258-33.487-12.623-51.346-12.623s-35.614,4.364-51.346,12.623
			c-3.92,2.058-5.43,6.904-3.372,10.824c2.059,3.921,6.904,5.43,10.824,3.372c13.443-7.056,28.621-10.785,43.895-10.785
			s30.452,3.729,43.894,10.785c1.19,0.624,2.464,0.92,3.719,0.92c3.797,0,7.159-2.771,7.881-6.5
			C226.645,120.42,224.927,116.86,221.835,115.236z"/>
	</g>
</g>
<g>
	<g>
		<path d="M198.02,160.7c-8.447-4.434-17.968-6.778-27.531-6.778s-19.084,2.344-27.531,6.778c-3.92,2.058-5.43,6.904-3.372,10.824
			c2.058,3.92,6.904,5.431,10.824,3.372c6.247-3.278,13.002-4.941,20.08-4.941s13.834,1.662,20.08,4.941
			c3.872,2.032,8.795,0.494,10.824-3.372C203.45,167.604,201.941,162.756,198.02,160.7z"/>
	</g>
</g>
<g>
	<g>
		<path d="M209.924,137.975c-12.1-6.35-25.737-9.708-39.436-9.708s-27.336,3.357-39.435,9.708c-3.92,2.058-5.43,6.903-3.372,10.824
			c2.057,3.92,6.903,5.431,10.824,3.372c9.95-5.223,20.71-7.87,31.982-7.87c11.273,0,22.033,2.649,31.982,7.87
			c1.191,0.624,2.465,0.92,3.721,0.92c3.797,0,7.159-2.771,7.881-6.5C214.734,143.159,213.017,139.599,209.924,137.975z"/>
	</g>
</g>
<g>
	<g>
		<path d="M478.739,106.93l-24.344-1.244c-11.552-0.59-52.526-8.043-80.724-22.142l-11.472-5.737c-2.256-1.129-4.914-1.129-7.17,0
			l-11.472,5.737c-8.618,4.309-18.432,7.994-28.233,11.056V42.221C315.324,18.941,296.383,0,273.102,0H67.875
			C44.594,0,25.653,18.941,25.653,42.221v111.521c0,4.427,3.589,8.017,8.017,8.017c4.427,0,8.017-3.589,8.017-8.017v-69.3H299.29
			V99.1c-16.194,4.068-30.389,6.275-36.458,6.585l-24.344,1.244c-4.263,0.218-7.607,3.738-7.607,8.006v133.047H84.977
			c-13.851,0-25.119,11.268-25.119,25.119v111.165c0,13.851,11.268,25.119,25.119,25.119H256c13.851,0,25.119-11.268,25.119-25.119
			v-42.945c5.97,5.621,12.199,10.923,18.584,15.835c-0.264,0.795-0.413,1.642-0.413,2.526v67.875H41.687V187.235
			c0-4.427-3.589-8.017-8.017-8.017c-4.427,0-8.017,3.589-8.017,8.017v282.544c0,23.281,18.941,42.221,42.221,42.221h205.228
			c23.281,0,42.221-18.941,42.221-42.221V368.187c10.265,6.615,20.671,12.12,30.785,16.166l9.528,3.811
			c1.898,0.76,4.057,0.76,5.955,0l9.527-3.811c25.481-10.192,52.831-29.523,75.038-53.036
			c18.334-19.412,40.189-49.195,40.189-80.839V114.936C486.347,110.668,483.002,107.148,478.739,106.93z M299.29,469.779
			c0,14.44-11.748,26.188-26.188,26.188H67.875c-14.44,0-26.188-11.748-26.188-26.188v-26.188H299.29V469.779z M41.687,68.409
			V42.221c0-14.44,11.748-26.188,26.188-26.188h205.228c14.44,0,26.188,11.748,26.188,26.188v26.188H41.687z M75.891,273.102
			c0-5.01,4.076-9.086,9.086-9.086H232.18c1.728,9.261,5.081,18.244,9.39,26.722H75.891V273.102z M75.891,306.772h175.24
			c2.277,3.336,4.645,6.548,7.055,9.62H75.891V306.772z M265.086,384.267c0,5.01-4.076,9.086-9.086,9.086H84.977
			c-5.01,0-9.086-4.076-9.086-9.086v-51.841h189.194V384.267z M434.501,320.307c-20.666,21.882-45.939,39.8-69.337,49.159
			l-6.55,2.62l-6.55-2.62c-23.398-9.359-48.67-27.277-69.336-49.159c-16.338-17.298-35.813-43.455-35.813-69.83V122.554
			l16.737-0.855c11.262-0.576,54.557-7.556,87.075-23.815l7.887-3.943l7.887,3.943c32.518,16.259,75.814,23.239,87.075,23.815
			l16.737,0.855v127.923h0C470.313,276.852,450.838,303.009,434.501,320.307z"/>
	</g>
</g>
<g>
	<g>
		<path d="M376.785,205.049h-27.257v-11.758h44.359c13.262,0,24.05-10.788,24.05-24.05c0-13.262-10.788-24.05-24.05-24.05h-10.154
			v-1.603c0-13.262-10.788-24.05-24.05-24.05s-24.05,10.788-24.05,24.05v2.19c-19.396,3.311-34.205,20.242-34.205,40.566v25.654
			c0,22.692,18.461,41.152,41.152,41.152h27.257v11.758h-44.359c-13.262,0-24.05,10.788-24.05,24.05s10.788,24.05,24.05,24.05
			h10.154v1.603c0,13.262,10.788,24.05,24.05,24.05s24.05-10.788,24.05-24.05v-2.19c19.396-3.311,34.205-20.242,34.205-40.566
			v-25.653C417.937,223.51,399.477,205.049,376.785,205.049z M401.904,271.855c0,13.851-11.268,25.119-25.119,25.119h-1.069
			c-4.427,0-8.017,3.589-8.017,8.017v9.62c0,4.421-3.596,8.017-8.017,8.017c-4.421,0-8.017-3.596-8.017-8.017v-9.62
			c0-4.427-3.589-8.017-8.017-8.017h-18.171c-4.421,0-8.017-3.596-8.017-8.017c0-4.421,3.596-8.017,8.017-8.017h51.307
			c5.01,0,9.086-4.076,9.086-9.086v-25.653c0-5.01-4.076-9.086-9.086-9.086H342.58c-13.851,0-25.119-11.268-25.119-25.119v-25.653
			c0-13.851,11.268-25.119,25.119-25.119h1.069c4.427,0,8.017-3.589,8.017-8.017v-9.62c0-4.421,3.596-8.017,8.017-8.017
			c4.421,0,8.017,3.596,8.017,8.017v9.62c0,4.427,3.589,8.017,8.017,8.017h18.171c4.421,0,8.017,3.596,8.017,8.017
			c0,4.421-3.596,8.017-8.017,8.017H342.58c-5.01,0-9.086,4.076-9.086,9.086v25.653c0,5.01,4.076,9.086,9.086,9.086h34.205
			c13.851,0,25.119,11.268,25.119,25.119V271.855z"/>
	</g>
</g>
</svg>